<svg width="69" height="39" viewBox="0 0 69 39" fill="none" xmlns="http://www.w3.org/2000/svg">
<path d="M41.5 21.3653C43 17.3916 54 13.9146 54 21.3653C54 28.8159 54 31.2995 54 31.2995" stroke="#24272C" stroke-width="3" stroke-linecap="round"/>
<path d="M2 9.44412L2 31.2995" stroke="#24272C" stroke-width="3" stroke-linecap="round"/>
<path d="M11 17.3915L11 31.2995" stroke="#24272C" stroke-width="3" stroke-linecap="round"/>
<path d="M67 17.3915H59" stroke="#24272C" stroke-width="3" stroke-linecap="round"/>
<path d="M41 9.44412L41 31.2995" stroke="#24272C" stroke-width="3" stroke-linecap="round"/>
<path d="M63 13.4178L63 31.2995" stroke="#24272C" stroke-width="3" stroke-linecap="round"/>
<path d="M32 16.3981V31.2995C31.3333 34.2798 27.9 39.3463 19.5 35.7699" stroke="#24272C" stroke-width="3" stroke-linecap="round"/>
<ellipse cx="25" cy="23.3521" rx="7" ry="6.95399" stroke="#24272C" stroke-width="3" stroke-linecap="round"/>
<path d="M11 11.4376C12.6506 11.4376 14 10.1065 14 8.4507C14 7.63019 13.642 6.79966 13.1653 6.18474C12.7063 5.59263 11.9479 4.96713 11 4.96713C10.0521 4.96713 9.29369 5.59263 8.83467 6.18474C8.35797 6.79966 8 7.63019 8 8.4507C8 10.1065 9.34937 11.4376 11 11.4376Z" stroke="#24272C" stroke-width="2" stroke-linecap="round"/>
</svg>
